<?xml version="1.0" encoding="UTF-8" standalone="no"?>
<svg
   xmlns:dc="http://purl.org/dc/elements/1.1/"
   xmlns:cc="http://creativecommons.org/ns#"
   xmlns:rdf="http://www.w3.org/1999/02/22-rdf-syntax-ns#"
   xmlns:svg="http://www.w3.org/2000/svg"
   xmlns="http://www.w3.org/2000/svg"
   xmlns:sodipodi="http://sodipodi.sourceforge.net/DTD/sodipodi-0.dtd"
   xmlns:inkscape="http://www.inkscape.org/namespaces/inkscape"
   version="1.1"
   id="Capa_1"
   x="0px"
   y="0px"
   viewBox="0 0 512 512"
   style="enable-background:new 0 0 512 512;"
   xml:space="preserve"
   sodipodi:docname="steering-wheel.svg"
   inkscape:export-filename="/home/jbacon/Documents/Electronya/RcProjects/rc-mission-commander/resources/icons/steering-wheel.png"
   inkscape:export-xdpi="73.113403"
   inkscape:export-ydpi="73.113403"
   inkscape:version="1.0.2 (1.0.2+r75+1)"><metadata
   id="metadata49"><rdf:RDF><cc:Work
       rdf:about=""><dc:format>image/svg+xml</dc:format><dc:type
         rdf:resource="http://purl.org/dc/dcmitype/StillImage" /></cc:Work></rdf:RDF></metadata><defs
   id="defs47" /><sodipodi:namedview
   pagecolor="#ffffff"
   bordercolor="#666666"
   borderopacity="1"
   objecttolerance="10"
   gridtolerance="10"
   guidetolerance="10"
   inkscape:pageopacity="0"
   inkscape:pageshadow="2"
   inkscape:window-width="1920"
   inkscape:window-height="1028"
   id="namedview45"
   showgrid="false"
   inkscape:zoom="0.84570313"
   inkscape:cx="154.13811"
   inkscape:cy="392.16947"
   inkscape:window-x="0"
   inkscape:window-y="21"
   inkscape:window-maximized="1"
   inkscape:current-layer="layer2" />

<g
   id="g12">
	<g
   id="g10">
		<path
   d="M256,241c-8.276,0-15,6.724-15,15s6.724,15,15,15s15-6.724,15-15S264.276,241,256,241z"
   id="path8"
   style="fill:#ffffff" />
	</g>
</g>
<g
   id="g14">
</g>
<g
   id="g16">
</g>
<g
   id="g18">
</g>
<g
   id="g20">
</g>
<g
   id="g22">
</g>
<g
   id="g24">
</g>
<g
   id="g26">
</g>
<g
   id="g28">
</g>
<g
   id="g30">
</g>
<g
   id="g32">
</g>
<g
   id="g34">
</g>
<g
   id="g36">
</g>
<g
   id="g38">
</g>
<g
   id="g40">
</g>
<g
   id="g42">
</g>
<g
   inkscape:groupmode="layer"
   id="layer2"
   inkscape:label="background"
   style="display:none"><rect
     style="fill:#000000;stroke:#ffffff;stroke-width:20"
     id="rect881"
     width="551.86963"
     height="544.89636"
     x="-11.623556"
     y="-12.333195" /></g><g
   inkscape:groupmode="layer"
   id="layer1"
   inkscape:label="drawing"><g
     id="g6"
     style="enable-background:new 0 0 512 512;fill:#ffffff">
	<g
   id="g4"
   style="fill:#ffffff">
		<path
   d="M256,0C115.39,0,0,115.39,0,256s115.39,256,256,256s256-115.39,256-256S396.61,0,256,0z M256,60    c88.436,0,164.196,60.235,187.989,141.072c-1.362-3.468-3.957-6.464-7.604-8.148C395.047,173.793,329.374,151,256,151    s-139.047,22.793-180.385,41.924c-3.647,1.685-6.242,4.68-7.604,8.148C91.804,120.235,167.564,60,256,60z M63.875,294.622    c1.503,5.636,6.232,10.115,12.37,10.992l36.039,5.01c45.894,6.548,82.544,43.198,89.092,89.092l5.01,36.039    c0.76,5.317,4.281,9.474,8.857,11.494C139.75,431.055,79.175,370.445,63.875,294.622z M256,301c-24.814,0-45-20.186-45-45    c0-24.814,20.186-45,45-45c24.814,0,45,20.186,45,45C301,280.814,280.814,301,256,301z M296.757,447.248    c4.576-2.02,8.097-6.176,8.857-11.494l5.01-36.039c6.548-45.894,43.198-82.544,89.092-89.092l36.039-5.01    c6.138-0.877,10.867-5.356,12.371-10.992C432.825,370.445,372.25,431.055,296.757,447.248z"
   id="path2"
   style="fill:#ffffff" />
	</g>
</g></g></svg>
