<?xml version="1.0" encoding="UTF-8" standalone="no"?>
<svg
   height="512"
   viewBox="0 0 32 32"
   width="512"
   version="1.1"
   id="svg7"
   sodipodi:docname="reload.svg"
   inkscape:version="1.1.1 (1:1.1+202109281949+c3084ef5ed)"
   xmlns:inkscape="http://www.inkscape.org/namespaces/inkscape"
   xmlns:sodipodi="http://sodipodi.sourceforge.net/DTD/sodipodi-0.dtd"
   xmlns="http://www.w3.org/2000/svg"
   xmlns:svg="http://www.w3.org/2000/svg">
  <defs
     id="defs11" />
  <sodipodi:namedview
     id="namedview9"
     pagecolor="#505050"
     bordercolor="#eeeeee"
     borderopacity="1"
     inkscape:pageshadow="0"
     inkscape:pageopacity="0"
     inkscape:pagecheckerboard="0"
     showgrid="false"
     inkscape:zoom="1.6464844"
     inkscape:cx="256"
     inkscape:cy="256.30368"
     inkscape:window-width="1920"
     inkscape:window-height="1027"
     inkscape:window-x="0"
     inkscape:window-y="22"
     inkscape:window-maximized="1"
     inkscape:current-layer="svg7" />
  <g
     id="_28_Reload"
     data-name="28 Reload"
     style="fill:#ffffff">
    <path
       d="m27.0156 5.001-1.7724 1.7715a12.264 12.264 0 0 0 -21.9649 7.0214 1.0147 1.0147 0 0 0 .999 1.0391h4.5142a1.0006 1.0006 0 0 0 .998-.9365 5.7553 5.7553 0 0 1 10.7671-2.4355l-1.666 1.665a1.0109 1.0109 0 0 0 .707 1.707h8.125a.9994.9994 0 0 0 1-1v-8.125a1.011 1.011 0 0 0 -1.707-.707z"
       id="path2"
       style="fill:#ffffff" />
    <path
       d="m27.7227 17.167h-4.5137a1.0009 1.0009 0 0 0 -.998.9365 5.7553 5.7553 0 0 1 -10.7671 2.4355l1.6655-1.665a1.011 1.011 0 0 0 -.707-1.707h-8.1251a1 1 0 0 0 -1 1v8.125a1.011 1.011 0 0 0 1.707.707l1.772-1.7715a12.2643 12.2643 0 0 0 21.9653-7.0215 1.0147 1.0147 0 0 0 -.9989-1.039z"
       id="path4"
       style="fill:#ffffff" />
  </g>
</svg>
