<?xml version="1.0" encoding="UTF-8" standalone="no"?>
<!-- Generator: Adobe Illustrator 19.0.0, SVG Export Plug-In . SVG Version: 6.00 Build 0)  -->

<svg
   version="1.1"
   id="Capa_1"
   x="0px"
   y="0px"
   viewBox="0 0 512.00001 512.00001"
   xml:space="preserve"
   sodipodi:docname="connected.svg"
   width="512"
   height="512"
   inkscape:version="1.1.1 (1:1.1+202109281949+c3084ef5ed)"
   xmlns:inkscape="http://www.inkscape.org/namespaces/inkscape"
   xmlns:sodipodi="http://sodipodi.sourceforge.net/DTD/sodipodi-0.dtd"
   xmlns="http://www.w3.org/2000/svg"
   xmlns:svg="http://www.w3.org/2000/svg"><defs
   id="defs53"><clipPath
     clipPathUnits="userSpaceOnUse"
     id="clipPath1227"><rect
       style="fill:#ff0000;stroke-width:6.71258"
       id="rect1229"
       width="306.92719"
       height="316.27301"
       x="216.68581"
       y="45.286308"
       transform="rotate(45.039606)" /></clipPath></defs><sodipodi:namedview
   id="namedview51"
   pagecolor="#505050"
   bordercolor="#eeeeee"
   borderopacity="1"
   inkscape:pageshadow="0"
   inkscape:pageopacity="0"
   inkscape:pagecheckerboard="0"
   showgrid="false"
   inkscape:zoom="1.3292602"
   inkscape:cx="193.71678"
   inkscape:cy="293.39628"
   inkscape:window-width="1920"
   inkscape:window-height="1027"
   inkscape:window-x="0"
   inkscape:window-y="22"
   inkscape:window-maximized="1"
   inkscape:current-layer="Capa_1"
   showguides="true"
   inkscape:guide-bbox="true"><sodipodi:guide
     position="256.00001,530.80545"
     orientation="-1,0"
     id="guide98"
     inkscape:label=""
     inkscape:locked="false"
     inkscape:color="rgb(0,0,255)" /><sodipodi:guide
     position="-100.05566,256"
     orientation="0,1"
     id="guide100"
     inkscape:label=""
     inkscape:locked="false"
     inkscape:color="rgb(0,0,255)" /></sodipodi:namedview>
<g
   id="g6"
   transform="translate(-44,43.951)"
   style="fill:#ffffff">
	<g
   id="g4"
   style="fill:#ffffff">
		<path
   d="M 509.502,25.737 486.214,2.449 c -3.2,-3.2 -8.866,-3.2 -12.066,0 L 410.25,66.355 c -10.027,-9.344 -25.737,-9.207 -35.507,0.563 l -5.282,5.274 C 356.789,60.356 340.396,53.803 322.963,53.803 c -18.227,0 -35.371,7.1 -48.256,19.994 l -50.935,50.935 c -1.604,1.604 -2.5,3.763 -2.5,6.033 0,2.27 0.896,4.437 2.5,6.033 l 151.39,151.39 c 1.664,1.664 3.849,2.5 6.033,2.5 2.185,0 4.369,-0.836 6.033,-2.5 l 50.935,-50.935 c 26.044,-26.044 26.522,-68.036 1.596,-94.754 l 5.274,-5.274 c 9.771,-9.771 9.916,-25.481 0.563,-35.507 l 63.906,-63.906 c 3.328,-3.337 3.328,-8.739 0,-12.075 z M 369.752,130.97 c -1.664,1.664 -3.849,2.5 -6.033,2.5 -2.185,0 -4.369,-0.836 -6.033,-2.5 L 334.39,107.665 c -6.298,-6.298 -16.546,-6.298 -22.852,0 l -23.296,23.305 c -3.328,3.336 -8.73,3.336 -12.066,0 -3.337,-3.337 -3.336,-8.73 0,-12.066 l 23.296,-23.305 c 12.954,-12.954 34.022,-12.954 46.985,0 l 23.296,23.305 c 3.335,3.336 3.335,8.738 -10e-4,12.066 z m 63.206,-5.82 -5.188,5.188 -14.507,-14.498 -31.659,-31.667 5.197,-5.188 c 3.319,-3.311 8.73,-3.328 12.066,0 l 5.402,5.402 v 0.009 l 23.287,23.287 c 0,0 0.009,0.009 0.017,0.009 l 5.385,5.393 c 3.328,3.327 3.328,8.737 0,12.065 z"
   id="path2"
   style="fill:#ffffff" />
	</g>
</g>

<g
   id="g1237"
   transform="translate(34,-32)"
   style="fill:#ffffff"><g
     id="g12"
     clip-path="url(#clipPath1227)"
     style="fill:#ffffff">
	<g
   id="g10"
   style="fill:#ffffff">
		<path
   d="m 328.996,264.474 c -9.754,-9.754 -25.609,-9.762 -35.362,0 l -46.37,46.37 -46.157,-46.165 46.37,-46.362 c 4.727,-4.727 7.322,-10.999 7.322,-17.681 0,-6.682 -2.603,-12.962 -7.322,-17.672 -9.446,-9.446 -25.916,-9.455 -35.362,0 l -46.37,46.362 -17.254,-17.254 c -3.2,-3.2 -8.866,-3.2 -12.066,0 l -62.583,62.583 c -26.044,26.044 -26.522,68.036 -1.596,94.754 l -5.274,5.274 c -9.771,9.771 -9.916,25.481 -0.563,35.507 L 2.502,474.095 c -3.336,3.337 -3.336,8.73 0,12.066 l 23.287,23.287 c 1.604,1.604 3.772,2.5 6.033,2.5 2.261,0 4.437,-0.896 6.033,-2.5 l 63.898,-63.906 c 4.907,4.574 11.136,6.921 17.408,6.921 6.554,0 13.107,-2.492 18.099,-7.484 l 5.282,-5.274 c 12.681,11.836 29.065,18.398 46.498,18.398 18.227,0 35.371,-7.1 48.256,-19.994 l 62.575,-62.583 c 3.337,-3.337 3.337,-8.73 0,-12.066 l -17.254,-17.254 46.379,-46.37 c 9.745,-9.754 9.745,-25.609 0,-35.362 z M 224.19,195.021 c 2.995,-3.004 8.218,-3.004 11.221,0.008 1.493,1.493 2.321,3.482 2.321,5.598 0,2.125 -0.828,4.113 -2.321,5.615 l -46.37,46.362 -11.221,-11.221 z m -98.995,237.892 c -3.328,3.311 -8.738,3.328 -12.066,0 l -5.393,-5.402 c 0,0 0,-0.009 -0.008,-0.009 l -23.288,-23.287 -0.009,-0.009 -5.393,-5.393 c -3.328,-3.328 -3.328,-8.738 0,-12.066 l 5.188,-5.188 14.498,14.498 31.659,31.667 z m 128.102,-57.387 -46.583,46.583 c -1.664,1.664 -3.849,2.5 -6.033,2.5 -2.185,0 -4.369,-0.836 -6.033,-2.5 L 89.841,317.303 c -3.336,-3.337 -3.336,-8.73 0,-12.066 l 46.583,-46.583 c 3.337,-3.336 8.73,-3.336 12.066,0 L 253.297,363.46 c 3.337,3.328 3.337,8.73 0,12.066 z m 63.633,-87.756 -46.37,46.37 -11.221,-11.221 46.37,-46.37 c 3.004,-3.004 8.226,-3.004 11.221,0 3.089,3.08 3.089,8.123 0,11.221 z"
   id="path8"
   style="fill:#ffffff" />
	</g>
</g><g
     id="g18"
     style="fill:#ffffff">
	<g
   id="g16"
   style="fill:#ffffff">
		<path
   d="m 142.458,276.745 -34.517,34.517 92.74,92.74 34.517,-34.517 z m 52.608,87.142 c -1.664,1.664 -3.849,2.5 -6.033,2.5 -2.185,0 -4.369,-0.836 -6.033,-2.5 l -34.935,-34.944 c -3.328,-3.337 -3.328,-8.738 0,-12.066 3.337,-3.336 8.73,-3.336 12.066,0 l 34.935,34.944 c 3.336,3.336 3.336,8.729 0,12.066 z"
   id="path14"
   style="fill:#ffffff" />
	</g>
</g></g>
<g
   id="g20">
</g>
<g
   id="g22">
</g>
<g
   id="g24">
</g>
<g
   id="g26">
</g>
<g
   id="g28">
</g>
<g
   id="g30">
</g>
<g
   id="g32">
</g>
<g
   id="g34">
</g>
<g
   id="g36">
</g>
<g
   id="g38">
</g>
<g
   id="g40">
</g>
<g
   id="g42">
</g>
<g
   id="g44">
</g>
<g
   id="g46">
</g>
<g
   id="g48">
</g>
</svg>
